<svg width="75" height="99" viewBox="0 0 75 99" fill="none" xmlns="http://www.w3.org/2000/svg">
<g clip-path="url(#clip0_31_67)">
<path d="M18.9458 0H29.5801V4.44675H23.3926V8.8935H29.5801V13.3403H18.9458V0Z" fill="#8D8D8D"/>
<path d="M31.7043 0H42.3427V3.86925H36.1552V4.64062H42.3427V13.5341H31.7043V9.47512H37.8918V8.69963H31.7043V0Z" fill="#8D8D8D"/>
<path d="M44.4712 0H55.1013V3.86925H48.9138V4.64062H55.1013V13.5341H44.4712V9.47512H50.6587V8.69963H44.4712V0Z" fill="#8D8D8D"/>
<path fill-rule="evenodd" clip-rule="evenodd" d="M37.4629 99.0001L8.81887 91.0471L0.375 19.4578H74.625L66.1852 91.0389L37.4629 99.0001ZM17.0689 51.8638L17.8568 60.6418H48.2869L47.268 72.0268L37.4753 74.675H37.467L27.6907 72.035L27.0638 65.0349H18.2486L19.4779 78.8206L37.4629 83.8119L55.4767 78.8206L57.6712 54.2191L57.8857 51.8638L59.4697 34.0891H15.489L16.2892 42.8713H49.8503L49.05 51.8638H17.0689Z" fill="#278AE5"/>
</g>
<defs>
<clipPath id="clip0_31_67">
<rect width="75" height="99" fill="white"/>
</clipPath>
</defs>
</svg>
