<svg width="66" height="99" viewBox="0 0 66 99" fill="none" xmlns="http://www.w3.org/2000/svg">
<g clip-path="url(#clip0_31_86)">
<path d="M16.5 99C25.608 99 33 91.608 33 82.5V66H16.5C7.392 66 0 73.392 0 82.5C0 91.608 7.392 99 16.5 99Z" fill="#0ACF83"/>
<path d="M0 49.5C0 40.392 7.392 33 16.5 33H33V66H16.5C7.392 66 0 58.608 0 49.5Z" fill="#A259FF"/>
<path d="M0 16.5C0 7.392 7.392 0 16.5 0H33V33H16.5C7.392 33 0 25.608 0 16.5Z" fill="#F24E1E"/>
<path d="M33 0H49.5C58.608 0 66 7.392 66 16.5C66 25.608 58.608 33 49.5 33H33V0Z" fill="#FF7262"/>
<path d="M66 49.5C66 58.608 58.608 66 49.5 66C40.392 66 33 58.608 33 49.5C33 40.392 40.392 33 49.5 33C58.608 33 66 40.392 66 49.5Z" fill="#1ABCFE"/>
</g>
<defs>
<clipPath id="clip0_31_86">
<rect width="66" height="99" fill="white"/>
</clipPath>
</defs>
</svg>
