<svg width="74" height="98" viewBox="0 0 74 98" fill="none" xmlns="http://www.w3.org/2000/svg">
<g clip-path="url(#clip0_31_59)">
<path d="M8.74341 0H13.1616V4.36508H17.2041V0H21.6222V13.2137H17.2041V8.79142H13.1616V13.2137H8.74749V0H8.74341Z" fill="#8D8D8D"/>
<path d="M27.4286 4.38142H23.5413V0H35.7382V4.38142H31.8468V13.2137H27.4286V4.38142Z" fill="#8D8D8D"/>
<path d="M37.6738 0H42.2798L45.1137 4.64275L47.9434 0H52.5494V13.2137H48.1517V6.664L45.1137 11.3639H45.0361L41.994 6.66808V13.2137H37.6738V0Z" fill="#8D8D8D"/>
<path d="M54.7461 0H59.1683V8.84858H65.375V13.2177H54.7461V0Z" fill="#8D8D8D"/>
<path fill-rule="evenodd" clip-rule="evenodd" d="M8.6045 90.1275L0.25 19.2612H73.75L65.3914 90.1193L36.9592 98.0002L8.6045 90.1275ZM25.4972 51.3358L24.7051 42.4341H57.9638L58.7397 33.7448H15.2113L17.5552 60.0292H47.6779L46.6693 71.2992L36.9755 73.9207H36.9673L27.2898 71.3074L26.6692 64.378H17.939L19.1558 78.0245L36.9592 82.9653L54.7911 78.0245L56.9634 53.6715L57.1758 51.3399H25.4972V51.3358Z" fill="#F16528"/>
</g>
<defs>
<clipPath id="clip0_31_59">
<rect width="74" height="98" fill="white"/>
</clipPath>
</defs>
</svg>
