<svg width="74" height="85" viewBox="0 0 74 85" fill="none" xmlns="http://www.w3.org/2000/svg">
<path d="M66.0714 5.28564H7.92857C3.55134 5.28564 0 8.83698 0 13.2142V71.3571C0 75.7343 3.55134 79.2856 7.92857 79.2856H66.0714C70.4487 79.2856 74 75.7343 74 71.3571V13.2142C74 8.83698 70.4487 5.28564 66.0714 5.28564ZM40.2705 62.999C40.2705 70.2008 36.042 73.4879 29.8808 73.4879C24.3143 73.4879 21.0933 70.6138 19.4415 67.1285L25.1071 63.7093C26.1973 65.6419 27.1884 67.2772 29.5835 67.2772C31.8629 67.2772 33.3165 66.3852 33.3165 62.8999V39.2629H40.2705V62.999ZM56.7223 73.4879C50.2638 73.4879 46.0848 70.4156 44.0531 66.3852L49.7188 63.1147C51.2054 65.5428 53.1545 67.3432 56.5737 67.3432C59.4478 67.3432 61.2978 65.9062 61.2978 63.9075C61.2978 61.5289 59.4147 60.6865 56.2268 59.2825L54.4924 58.5392C49.471 56.4084 46.1509 53.716 46.1509 48.0504C46.1509 42.8307 50.1317 38.8664 56.3259 38.8664C60.7527 38.8664 63.9241 40.4026 66.2036 44.433L60.7857 47.9017C59.5964 45.7709 58.308 44.9285 56.3094 44.9285C54.2777 44.9285 52.9893 46.2169 52.9893 47.9017C52.9893 49.983 54.2777 50.8254 57.2674 52.1303L59.0018 52.8736C64.9152 55.4008 68.2353 57.9941 68.2353 63.8084C68.2353 70.0522 63.3129 73.4879 56.7223 73.4879Z" fill="#EAD41C"/>
</svg>
