<svg width="109" height="83" viewBox="0 0 109 83" fill="none" xmlns="http://www.w3.org/2000/svg">
<g id="logos:google-gmail" clip-path="url(#clip0_31_107)">
<path id="Vector" d="M24.771 81.7655V39.6545L11.7111 27.7066L0 21.0764V74.334C0 78.4459 3.3315 81.7655 7.43148 81.7655H24.771V81.7655Z" fill="#4285F4"/>
<path id="Vector_2" d="M84.2212 81.7653H101.561C105.673 81.7653 108.992 78.4334 108.992 74.3338V21.0767L95.7275 28.6708L84.2212 39.6543V81.7653V81.7653Z" fill="#34A853"/>
<path id="Vector_3" d="M24.771 39.6545L22.9939 23.2005L24.771 7.45239L54.496 29.7464L84.2211 7.45239L86.2094 22.3503L84.2211 39.6545L54.496 61.9485L24.771 39.6545Z" fill="#EA4335"/>
<path id="Vector_4" d="M84.2212 7.45245V39.6545L108.992 21.0765V11.168C108.992 1.97815 98.5017 -3.26071 91.1575 2.25063L84.2212 7.45245Z" fill="#FBBC04"/>
<path id="Vector_5" d="M0 21.0762L11.3927 29.621L24.771 39.6542V7.45216L17.8347 2.25034C10.4777 -3.26143 0 1.97786 0 11.1673V21.0758V21.0762Z" fill="#C5221F"/>
</g>
<defs>
<clipPath id="clip0_31_107">
<rect width="108.992" height="82.1699" fill="white"/>
</clipPath>
</defs>
</svg>
