<svg width="71" height="81" viewBox="0 0 71 81" fill="none" xmlns="http://www.w3.org/2000/svg">
<g clip-path="url(#clip0_31_82)">
<path d="M35.5 80.0038C34.3976 80.0038 33.3686 79.7098 32.4132 79.1954L22.6376 73.3889C21.1677 72.5804 21.9027 72.2864 22.3436 72.1394C24.328 71.478 24.6955 71.331 26.7534 70.1548C26.9742 70.0078 27.2682 70.0813 27.4884 70.2283L34.9855 74.7118C35.2795 74.8588 35.647 74.8588 35.8675 74.7118L65.1938 57.7336C65.4878 57.5867 65.6348 57.2927 65.6348 56.9252V23.0418C65.6348 22.6743 65.4878 22.3804 65.1938 22.2334L35.8675 5.32843C35.5735 5.18144 35.206 5.18144 34.9855 5.32843L5.6592 22.2336C5.36522 22.3806 5.21822 22.7481 5.21822 23.0421V56.9252C5.21822 57.2192 5.36522 57.5867 5.6592 57.7336L13.6708 62.3639C18.0074 64.5688 20.7265 61.9964 20.7265 59.4241V25.9817C20.7265 25.5407 21.0942 25.0997 21.6087 25.0997H25.3573C25.7982 25.0997 26.2392 25.4672 26.2392 25.9817V59.4238C26.2392 65.2303 23.0786 68.6111 17.5661 68.6111C15.8757 68.6111 14.5528 68.6111 10.8045 66.7737L3.08684 62.3639C1.17594 61.2612 0 59.2033 0 56.9984V23.1156C0 20.9107 1.17594 18.8528 3.08684 17.7501L32.4132 0.771953C34.2506 -0.256992 36.7494 -0.256992 38.5868 0.771953L67.9132 17.7501C69.8241 18.8525 71 20.9104 71 23.1156V56.9987C71 59.2036 69.8241 61.2615 67.9132 62.3639L38.5868 79.3426C37.6314 79.7836 36.5289 80.0041 35.5 80.0041V80.0038ZM44.5403 56.7044C31.6779 56.7044 29.0321 50.8247 29.0321 45.8267C29.0321 45.3857 29.3995 44.9448 29.914 44.9448H33.7358C34.1768 44.9448 34.5446 45.2388 34.5446 45.6797C35.1325 49.575 36.8229 51.4862 44.6138 51.4862C50.7877 51.4862 53.4339 50.0898 53.4339 46.7825C53.4339 44.8713 52.6989 43.4749 43.0704 42.5191C35.059 41.7107 30.061 39.9468 30.061 33.5526C30.061 27.5989 35.0587 24.071 43.4379 24.071C52.8456 24.071 57.4762 27.3049 58.0641 34.3608C58.0641 34.5813 57.9906 34.8018 57.8436 35.0222C57.6967 35.1692 57.4762 35.3162 57.2557 35.3162H53.4339C53.0661 35.3162 52.6989 35.0222 52.6251 34.6548C51.7432 30.6125 49.4648 29.2895 43.4379 29.2895C36.6762 29.2895 35.8675 31.6414 35.8675 33.4053C35.8675 35.537 36.8229 36.1982 45.9367 37.3741C54.9773 38.5501 59.2401 40.2407 59.2401 46.5617C59.1666 53.0296 53.8749 56.7044 44.5403 56.7044V56.7044Z" fill="#539E43"/>
</g>
<defs>
<clipPath id="clip0_31_82">
<rect width="71" height="80.1523" fill="white"/>
</clipPath>
</defs>
</svg>
