<svg width="90" height="80" viewBox="0 0 90 80" fill="none" xmlns="http://www.w3.org/2000/svg">
<g id="vscode-icons:file-type-reactjs" clip-path="url(#clip0_31_75)">
<path id="Vector" d="M45 47.8857C49.401 47.8857 52.9688 44.318 52.9688 39.917C52.9688 35.516 49.401 31.9482 45 31.9482C40.599 31.9482 37.0312 35.516 37.0312 39.917C37.0312 44.318 40.599 47.8857 45 47.8857Z" fill="#00D8FF"/>
<path id="Vector_2" d="M45 58.1878C35.422 58.4195 25.868 57.1284 16.695 54.3628C12.4576 53.0196 8.50547 50.9035 5.03831 48.1217C3.71528 47.1714 2.61349 45.946 1.80855 44.5298C1.00362 43.1136 0.514579 41.54 0.375 39.9171C0.375 34.6481 6.1635 29.4844 15.8599 26.1056C25.2781 23.1118 35.1185 21.6608 45 21.8089C54.7496 21.6727 64.4582 23.0974 73.7576 26.0291C77.8385 27.3301 81.6567 29.3439 85.035 31.977C86.3354 32.883 87.4207 34.0639 88.2139 35.4361C89.0071 36.8082 89.4888 38.338 89.625 39.9171C89.625 45.3932 83.1544 50.9426 72.7313 54.3915C63.7359 57.067 54.3835 58.3473 45 58.1878ZM45 25.6211C35.5462 25.4948 26.1326 26.8741 17.1126 29.7075C8.18756 32.8217 4.18725 37.0802 4.18725 39.9075C4.18725 42.8655 8.48719 47.5161 17.9286 50.745C26.704 53.3774 35.8411 54.6028 45 54.3756C53.9773 54.5361 62.9263 53.3214 71.5359 50.7737C81.3375 47.5256 85.8 42.8687 85.8 39.9171C85.6392 38.9042 85.2701 37.9356 84.7159 37.0726C84.1618 36.2096 83.4347 35.4709 82.5806 34.9031C79.5581 32.5671 76.1473 30.7824 72.5049 29.631C63.6087 26.838 54.3234 25.4843 45 25.6211Z" fill="#00D8FF"/>
<path id="Vector_3" d="M26.895 79.662C25.408 79.6961 23.9386 79.3354 22.6365 78.6165C18.072 75.9836 16.491 68.391 18.4067 58.3026C20.5188 48.6479 24.1786 39.3985 29.2442 30.9124C33.9959 22.3989 40.0791 14.7005 47.2631 8.10901C50.4288 5.22338 54.0807 2.92149 58.0496 1.31007C59.4851 0.637313 61.0511 0.288574 62.6364 0.288574C64.2218 0.288574 65.7877 0.637313 67.2232 1.31007C71.9694 4.04494 73.5409 12.4217 71.3255 23.1731C69.1481 32.3039 65.5835 41.0468 60.7558 49.0971C56.1713 57.51 50.2797 65.1414 43.301 71.706C40.0204 74.7048 36.2131 77.0704 32.0715 78.6834C30.4134 79.2988 28.6633 79.6297 26.895 79.662ZM32.5464 32.8058C27.7145 40.9317 24.2068 49.7751 22.1552 59.0038C20.3925 68.2954 22.085 73.8831 24.5458 75.3047C27.0958 76.7805 33.2859 75.3812 40.802 68.8149C47.464 62.5259 53.0874 55.2209 57.4631 47.1718C62.088 39.4757 65.5074 31.1168 67.6025 22.3858C69.6872 12.2655 67.8862 6.06901 65.3298 4.59638C64.3717 4.22927 63.3479 4.06493 62.323 4.11376C61.2981 4.16259 60.2945 4.42352 59.3756 4.88007C55.8428 6.33786 52.5949 8.40745 49.7812 10.9937C42.9175 17.3075 37.1067 24.6774 32.5687 32.8249L32.5464 32.8058Z" fill="#00D8FF"/>
<path id="Vector_4" d="M63.0954 79.7035C58.7763 79.7035 53.2906 77.0898 47.5786 72.1779C40.2688 65.5264 34.0827 57.7365 29.2601 49.1099C24.258 40.7407 20.6273 31.625 18.5055 22.1086C17.5853 17.9218 17.4147 13.605 18.0018 9.35862C18.1376 7.78338 18.6172 6.25709 19.407 4.88739C20.1968 3.51769 21.2774 2.33793 22.5727 1.4313C27.3125 -1.31313 35.3546 1.5078 43.5624 8.79443C50.3855 15.2401 56.1798 22.6942 60.743 30.8966C65.742 39.0704 69.4108 47.9864 71.6124 57.3114C72.5722 61.6518 72.7203 66.1324 72.0491 70.5267C71.8894 72.1473 71.3811 73.7141 70.5592 75.1199C69.7372 76.5256 68.621 77.7369 67.287 78.6708C66.0061 79.3807 64.5595 79.7372 63.0954 79.7035ZM32.5591 47.1911C37.1856 55.4353 43.0948 62.8906 50.0649 69.2772C57.2336 75.445 62.9201 76.771 65.3649 75.3335C67.9149 73.8513 69.7955 67.8014 67.8575 58.0126C65.7343 49.1097 62.2153 40.599 57.4312 32.7963C53.0765 24.9459 47.5459 17.8082 41.0315 11.6313C33.305 4.7718 27.0384 3.23862 24.4852 4.71762C23.6894 5.3643 23.0364 6.16896 22.5673 7.08079C22.0982 7.99261 21.8233 8.99179 21.7599 10.0152C21.2531 13.8023 21.4182 17.649 22.2476 21.3787C24.2885 30.4794 27.7707 39.1956 32.5623 47.1974L32.5591 47.1911Z" fill="#00D8FF"/>
</g>
<defs>
<clipPath id="clip0_31_75">
<rect width="90" height="80" fill="white"/>
</clipPath>
</defs>
</svg>
