<svg width="90" height="67" viewBox="0 0 90 67" fill="none" xmlns="http://www.w3.org/2000/svg">
<g clip-path="url(#clip0_31_80)">
<path d="M77.402 38.5264C74.5838 38.5301 71.8034 39.1745 69.271 40.4109C68.4781 39.0951 67.8658 37.6786 67.4506 36.1996C67.212 35.0402 67.1569 33.8506 67.2872 32.6741C67.5611 31.3796 67.9165 30.1036 68.3512 28.8539C68.3352 28.6904 68.1557 27.918 66.3513 27.8924C64.5469 27.8667 62.9925 28.2353 62.8259 28.7128C62.5125 29.5851 62.2608 30.4782 62.0727 31.3858C60.5794 35.0699 58.7412 38.6046 56.5826 41.9428C55.3733 39.9603 54.8759 37.6247 55.1725 35.3214C55.4464 34.0269 55.8018 32.7509 56.2365 31.5011C56.2205 31.3377 56.041 30.5653 54.2366 30.5397C52.4322 30.514 50.8778 30.8826 50.7112 31.3601C50.5445 31.8377 50.333 32.9626 49.958 34.033C49.5831 35.1035 45.2051 44.885 44.0577 47.4073C43.468 48.6892 42.9584 49.7341 42.5995 50.4391C42.5825 50.4849 42.561 50.5289 42.5354 50.5705L42.045 51.5064V51.5224C41.7983 51.9647 41.5354 52.3749 41.404 52.3749C41.1749 51.4593 41.1859 50.5 41.4361 49.5898C42.0771 46.1958 43.6475 40.9205 43.6315 40.7378C43.6315 40.6384 43.9263 39.7218 42.6155 39.2475C42.3115 39.1028 41.9701 39.056 41.6384 39.1133C41.3066 39.1707 41.0008 39.3296 40.7631 39.568C40.6477 39.568 40.5676 39.8468 40.5676 39.8468C40.5676 39.8468 41.9938 33.9145 37.8466 33.9145C36.2316 34.2393 34.6978 34.8839 33.3356 35.8102C31.9734 36.7365 30.8101 37.9259 29.9143 39.3084C28.799 39.9141 26.4241 41.2089 23.8826 42.6031C22.9211 43.1447 21.9148 43.6863 20.9822 44.2055C20.9181 44.1414 20.8508 44.0581 20.7867 43.994C15.7389 38.6161 6.46056 34.8215 6.86118 27.6264C7.00861 25.0047 7.9092 18.1205 24.6775 9.75881C38.4779 2.95793 49.4613 4.84243 51.3618 9.02168C54.0828 14.9893 45.4775 26.0688 31.2187 27.6744C29.6413 27.9945 28.0121 27.9559 26.4516 27.5614C24.8911 27.167 23.4392 26.4269 22.2032 25.3957C21.4501 24.5753 21.3347 24.5272 21.0559 24.6906C20.5976 24.9374 20.8924 25.6746 21.0559 26.1008C21.5998 27.0852 22.3356 27.9506 23.2196 28.6458C24.1037 29.3411 25.1181 29.8521 26.203 30.1487C31.8124 31.3608 37.6608 30.7813 42.9232 28.4917C51.5765 25.1489 58.3069 15.8546 56.3327 8.06981C54.3488 0.16963 41.2374 -2.43599 28.8279 1.98042C21.0551 4.59589 13.873 8.71561 7.69126 14.1047C0.855122 20.4986 -0.224945 26.0527 0.217337 28.3827C1.81981 36.6451 13.2006 42.0198 17.7548 46.0099C17.549 46.1269 17.3417 46.2412 17.133 46.3528C14.8543 47.4842 6.16891 52.0256 3.99276 56.8266C1.53457 62.275 4.38697 66.169 6.27147 66.6946C9.11107 67.3743 12.092 67.1504 14.7983 66.0542C17.5045 64.9579 19.8008 63.044 21.3667 60.5796C22.7002 58.5355 23.5199 56.1994 23.7559 53.7703C23.992 51.3412 23.6374 48.891 22.7224 46.6285C22.707 46.5919 22.6853 46.5583 22.6583 46.5291L24.4435 45.4811C25.5282 44.8399 26.6267 44.2222 27.7382 43.6286C27.071 45.553 26.6793 47.5621 26.5748 49.5962C26.3482 52.7139 27.3024 55.8028 29.2477 58.2496C29.5437 58.5044 29.8873 58.6979 30.2587 58.819C30.63 58.94 31.0217 58.9861 31.411 58.9547C33.334 58.9547 34.2154 57.3522 35.18 55.4485C36.3595 53.1217 37.4235 50.4167 37.4235 50.4167C37.4235 50.4167 36.0967 57.7272 39.7022 57.7272C41.013 57.7272 42.3399 56.0222 42.9328 55.1632V55.1792L43.0322 55.0158L43.2437 54.6729V54.6408C43.7693 53.7242 44.9487 51.641 46.7018 48.1829C48.9645 43.7248 51.1439 38.1514 51.1439 38.1514C51.3541 39.3762 51.6442 40.586 52.0124 41.773C52.5403 43.2118 53.1645 44.6134 53.8809 45.9682C53.3553 46.7054 53.0284 47.1156 53.0284 47.1156L53.0444 47.1316C52.6181 47.6893 52.1598 48.295 51.6502 48.8847C50.1341 50.5516 48.7274 52.3148 47.4389 54.1633C47.2475 54.4738 47.1817 54.8456 47.255 55.2029C47.3282 55.5602 47.535 55.8761 47.8332 56.0863C48.5078 56.4373 49.2769 56.5642 50.0285 56.4484C51.1613 56.3844 52.2752 56.1298 53.3232 55.6952C54.336 55.3388 55.2915 54.8368 56.1596 54.2049C57.0545 53.5849 57.7749 52.7451 58.2514 51.7663C58.7279 50.7874 58.9446 49.7024 58.8806 48.6155C58.7798 47.2465 58.4301 45.9073 57.8486 44.6638C58.0121 44.4331 58.1691 44.2055 58.3229 43.9748C60.1451 41.255 61.7873 38.419 63.2393 35.4849C63.4495 36.7097 63.7396 37.9195 64.1078 39.1065C64.5432 40.3498 65.0792 41.5557 65.7103 42.712C63.6141 44.3248 61.963 46.4447 60.9125 48.8719C59.8805 51.8557 60.6818 53.1986 62.1945 53.5095C63.0223 53.5665 63.8499 53.397 64.5886 53.0191C65.6747 52.6622 66.6978 52.1365 67.6205 51.4615C68.5933 50.8874 69.4082 50.0803 69.9917 49.113C70.5752 48.1457 70.9091 47.0485 70.9632 45.9202C70.8905 44.7938 70.6361 43.6867 70.2101 42.6415C72.9762 41.5608 75.9755 41.2163 78.9147 41.6416C86.7155 42.5582 88.2571 47.4265 87.9622 49.4777C87.824 50.2048 87.5316 50.8939 87.1048 51.4987C86.6781 52.1035 86.1268 52.6099 85.488 52.9839C84.9464 53.3268 84.7669 53.4422 84.815 53.6889C84.8791 54.0511 85.1355 54.0319 85.6002 53.9678C86.7759 53.6024 87.8132 52.8891 88.5753 51.9222C89.3375 50.9552 89.7886 49.78 89.8692 48.5514C90.116 43.744 85.5265 38.4719 77.4116 38.52L77.402 38.5264ZM17.2131 58.8072C14.6236 61.6276 11.018 62.6916 9.46039 61.791C7.78741 60.8296 8.44442 56.6631 11.6237 53.6761C13.5097 51.9784 15.5481 50.4582 17.7131 49.1347C18.0913 48.904 18.649 48.5771 19.3156 48.1732L19.4951 48.0739L19.8893 47.8271C20.4573 49.7302 20.5088 51.7501 20.0385 53.6797C19.5682 55.6092 18.5931 57.3789 17.2131 58.8072ZM36.0614 45.9875C35.1608 48.1829 33.2763 53.8075 32.1289 53.4935C31.145 53.2306 30.5265 48.9681 31.9334 44.7568C32.6438 42.7295 33.6786 40.831 34.9974 39.1353C36.4075 37.5617 37.9651 37.0361 38.3401 37.6771C37.998 40.5451 37.23 43.3461 36.0614 45.9875ZM51.615 53.4294C51.2368 53.6249 50.8779 53.7498 50.7144 53.6601C50.599 53.596 50.8778 53.3396 50.8778 53.3396C50.8778 53.3396 52.8297 51.2404 53.5989 50.2917C54.0411 49.7341 54.5603 49.0802 55.1244 48.3399V48.5514C55.1244 51.0577 52.6983 52.7467 51.6182 53.4358L51.615 53.4294ZM63.6143 50.6923C63.3355 50.4968 63.3835 49.8398 64.3194 47.7919C64.9701 46.4766 65.8791 45.3059 66.9923 44.3498C67.1629 44.8349 67.2517 45.345 67.2551 45.8593C67.2677 46.9539 66.9177 48.0219 66.2597 48.8968C65.6017 49.7716 64.6727 50.4041 63.6175 50.6955L63.6143 50.6923Z" fill="#CD6799"/>
</g>
<defs>
<clipPath id="clip0_31_80">
<rect width="90" height="66.9767" fill="white"/>
</clipPath>
</defs>
</svg>
